<?xml version="1.0" encoding="utf-8"?>
<!-- Generator: Adobe Illustrator 24.1.2, SVG Export Plug-In . SVG Version: 6.00 Build 0)  -->
<svg version="1.1" xmlns="http://www.w3.org/2000/svg" xmlns:xlink="http://www.w3.org/1999/xlink" x="0px" y="0px"
	 viewBox="0 0 512 512" style="enable-background:new 0 0 512 512;" xml:space="preserve">
<style type="text/css">
	.st0{fill:#57C0FF;}
	.st1{fill:#B22B9B;stroke:#7DC5FB;stroke-width:7;stroke-linecap:round;stroke-miterlimit:10;}
</style>
<g id="Layer_1">
	<g>
		<path class="st0" d="M256,285c-3.8,0-7.5-1.9-10.2-5.4L184.4,202H68.7c-24.2,0-44-24.9-44-55.6V55.6C24.8,24.9,44.5,0,68.7,0
			h374.5c24.2,0,44,24.9,44,55.6v90.8c0,30.7-19.7,55.6-44,55.6H327.6l-61.4,77.6C263.5,283.1,259.8,285,256,285z M68.7,36.6
			c-8.3,0-15,8.5-15,19v90.8c0,10.5,6.7,19,15,19h121.6c3.8,0,7.5,1.9,10.2,5.4l55.4,70l55.4-70c2.7-3.4,6.4-5.4,10.2-5.4h121.6
			c8.3,0,15-8.5,15-19V55.6c0-10.5-6.7-19-15-19C443.2,36.6,68.7,36.6,68.7,36.6z"/>
		<path class="st0" d="M120.1,66.5c13.4,0,23.9,6.2,23.9,22.9v25.1c0,16.7-10.5,22.9-23.9,22.9h-17.2c-4,0-6.6-2.1-6.6-4.6V71.1
			c0-2.4,2.6-4.6,6.6-4.6C102.9,66.5,120.1,66.5,120.1,66.5z M111.4,79.7v44.5h8.6c5.4,0,8.7-3.1,8.7-9.7V89.4
			c0-6.6-3.3-9.7-8.7-9.7C120.1,79.7,111.4,79.7,111.4,79.7z"/>
		<path class="st0" d="M152.8,115.2V89.4c0-16.7,10.4-22.9,23.8-22.9s23.9,6.2,23.9,22.9v25.7c0,16.7-10.5,22.9-23.9,22.9
			C163.2,138.1,152.8,131.8,152.8,115.2z M185.3,89.4c0-6.7-3.3-9.7-8.7-9.7c-5.4,0-8.6,3-8.6,9.7v25.7c0,6.7,3.2,9.7,8.6,9.7
			c5.4,0,8.7-3,8.7-9.7V89.4z"/>
		<path class="st0" d="M243.7,133.4l-18.4-33.6v33c0,3.1-3.8,4.7-7.6,4.7s-7.6-1.6-7.6-4.7V71.2c0-3.2,3.8-4.7,7.6-4.7
			c5.4,0,7.5,0.5,11.2,7.6l15.7,30v-33c0-3.2,3.8-4.6,7.6-4.6c3.8,0,7.6,1.4,7.6,4.6v61.7c0,3.1-3.8,4.7-7.6,4.7
			C248.7,137.5,245.6,136.8,243.7,133.4z"/>
		<path class="st0" d="M265.4,131.3c0-0.3,0.1-0.7,0.2-1.1L283.6,71c1.1-3.4,5.4-5,9.9-5c4.5,0,8.8,1.7,9.9,5l18.1,59.2
			c0.1,0.4,0.2,0.8,0.2,1.1c0,3.6-5.5,6.2-9.7,6.2c-2.4,0-4.4-0.8-5-2.8l-3.3-12.1h-20.5l-3.3,12.1c-0.6,2-2.5,2.8-5,2.8
			C270.9,137.5,265.4,134.9,265.4,131.3z M300.6,110.9l-7.1-26l-7.1,26H300.6z"/>
		<path class="st0" d="M363.3,66.5c3.2,0,4.6,3.5,4.6,6.7c0,3.7-1.6,6.9-4.6,6.9h-13.4v52.7c0,3.1-3.8,4.7-7.6,4.7
			c-3.8,0-7.6-1.6-7.6-4.7V80.1h-13.4c-2.9,0-4.6-3.2-4.6-6.9c0-3.2,1.4-6.7,4.6-6.7H363.3z"/>
		<path class="st0" d="M389,96.1h14.6c2.9,0,4.6,2.8,4.6,5.9c0,2.6-1.4,5.7-4.6,5.7H389v16.5h26c2.9,0,4.6,3.1,4.6,6.7
			c0,3.1-1.4,6.5-4.6,6.5h-34.5c-3.3,0-6.6-1.6-6.6-4.7V71.2c0-3.1,3.3-4.7,6.6-4.7H415c3.2,0,4.6,3.4,4.6,6.5
			c0,3.6-1.6,6.7-4.6,6.7h-26V96.1z"/>
		<path class="st0" d="M431.9,512H102.1c-20,0-36.3-13.2-36.3-29.5V325.8c0-6.5,6.5-11.8,14.5-11.8c8,0,14.5,5.3,14.5,11.8v156.8
			c0,3.3,3.3,6,7.4,6h329.8c4.1,0,7.4-2.7,7.4-6v-93.9c0-6.5,6.5-11.8,14.5-11.8s14.5,5.3,14.5,11.8v93.9
			C468.2,498.8,451.9,512,431.9,512z"/>
		<path class="st0" d="M435.7,337.2H76.3c-28.9,0-52.5-23.5-52.5-52.5s23.5-52.5,52.5-52.5h82.8c8,0,14.5,6.5,14.5,14.5
			c0,8-6.5,14.5-14.5,14.5H76.3c-13,0-23.5,10.6-23.5,23.5c0,13,10.6,23.5,23.5,23.5h359.5c13,0,23.5-10.6,23.5-23.5
			c0-13-10.6-23.5-23.5-23.5h-82.8c-8,0-14.5-6.5-14.5-14.5c0-8,6.5-14.5,14.5-14.5h82.8c28.9,0,52.5,23.5,52.5,52.5
			S464.7,337.2,435.7,337.2z"/>
	</g>
</g>
<g id="Layer_2">
	<line class="st1" x1="197.5" y1="50.6" x2="188.5" y2="58.6"/>
</g>
</svg>
